<svg xmlns="http://www.w3.org/2000/svg" xmlns:xlink="http://www.w3.org/1999/xlink" contentStyleType="text/css" data-diagram-type="CLASS" height="783px" preserveAspectRatio="none" style="width:6727px;height:783px;background:#FFFFFF;" version="1.1" viewBox="0 0 6727 783" width="6727px" zoomAndPan="magnify"><defs/><g><!--cluster com--><g class="cluster" data-entity="com" data-source-line="2" data-uid="ent0003" id="cluster_com"><path d="M8.5,6.602 L39.1239,6.602 A3.75,3.75 0 0 1 41.6239,9.102 L48.6239,31.6699 L6717.5,31.6699 A2.5,2.5 0 0 1 6720,34.1699 L6720,773.592 A2.5,2.5 0 0 1 6717.5,776.092 L8.5,776.092 A2.5,2.5 0 0 1 6,773.592 L6,9.102 A2.5,2.5 0 0 1 8.5,6.602" fill="none" style="stroke:#000000;stroke-width:1.5;"/><line style="stroke:#000000;stroke-width:1.5;" x1="6" x2="48.6239" y1="31.6699" y2="31.6699"/><text fill="#000000" font-family="sans-serif" font-size="14" font-weight="bold" lengthAdjust="spacing" textLength="29.6239" x="10" y="23.5679">com</text></g><!--cluster example--><g class="cluster" data-entity="example" data-source-line="2" data-uid="ent0004" id="cluster_example"><path d="M32.5,52.602 L93.3638,52.602 A3.75,3.75 0 0 1 95.8638,55.102 L102.8638,77.6699 L6693.5,77.6699 A2.5,2.5 0 0 1 6696,80.1699 L6696,749.592 A2.5,2.5 0 0 1 6693.5,752.092 L32.5,752.092 A2.5,2.5 0 0 1 30,749.592 L30,55.102 A2.5,2.5 0 0 1 32.5,52.602" fill="none" style="stroke:#000000;stroke-width:1.5;"/><line style="stroke:#000000;stroke-width:1.5;" x1="30" x2="102.8638" y1="77.6699" y2="77.6699"/><text fill="#000000" font-family="sans-serif" font-size="14" font-weight="bold" lengthAdjust="spacing" textLength="59.8638" x="34" y="69.5679">example</text></g><!--cluster client--><g class="cluster" data-entity="client" data-source-line="2" data-uid="ent0005" id="cluster_client"><path d="M56.5,98.602 L96.6158,98.602 A3.75,3.75 0 0 1 99.1158,101.102 L106.1158,123.6699 L2993.5,123.6699 A2.5,2.5 0 0 1 2996,126.1699 L2996,677.922 A2.5,2.5 0 0 1 2993.5,680.422 L56.5,680.422 A2.5,2.5 0 0 1 54,677.922 L54,101.102 A2.5,2.5 0 0 1 56.5,98.602" fill="none" style="stroke:#000000;stroke-width:1.5;"/><line style="stroke:#000000;stroke-width:1.5;" x1="54" x2="106.1158" y1="123.6699" y2="123.6699"/><text fill="#000000" font-family="sans-serif" font-size="14" font-weight="bold" lengthAdjust="spacing" textLength="39.1158" x="58" y="115.5679">client</text></g><!--cluster server--><g class="cluster" data-entity="server" data-source-line="33" data-uid="ent0009" id="cluster_server"><path d="M3022.5,203.472 L3067.7538,203.472 A3.75,3.75 0 0 1 3070.2538,205.972 L3077.2538,228.5399 L6669.5,228.5399 A2.5,2.5 0 0 1 6672,231.0399 L6672,725.592 A2.5,2.5 0 0 1 6669.5,728.092 L3022.5,728.092 A2.5,2.5 0 0 1 3020,725.592 L3020,205.972 A2.5,2.5 0 0 1 3022.5,203.472" fill="none" style="stroke:#000000;stroke-width:1.5;"/><line style="stroke:#000000;stroke-width:1.5;" x1="3020" x2="3077.2538" y1="228.5399" y2="228.5399"/><text fill="#000000" font-family="sans-serif" font-size="14" font-weight="bold" lengthAdjust="spacing" textLength="44.2538" x="3024" y="220.4379">server</text></g><!--class McpClientExample--><g class="entity" data-entity="McpClientExample" data-source-line="2" data-uid="ent0002" id="entity_McpClientExample"><rect fill="#F1F1F1" height="86.1358" rx="2.5" ry="2.5" style="stroke:#181818;stroke-width:0.5;" width="340.4948" x="1354.75" y="251.002"/><ellipse cx="1459.7706" cy="267.002" fill="#ADD1B2" rx="11" ry="11" style="stroke:#181818;stroke-width:1;"/><path d="M1459.2394,273.9239 Q1457.4894,273.9239 1456.3488,273.1895 Q1455.2238,272.4395 1454.6613,271.0957 Q1454.1144,269.7364 1454.1144,267.9395 Q1454.1144,265.9082 1454.7706,264.4551 Q1455.4269,263.002 1456.7081,262.2207 Q1457.9894,261.4395 1459.8644,261.4395 Q1460.755,261.4395 1461.4269,261.627 Q1462.0988,261.7989 1462.7863,262.1426 L1461.9738,264.1582 Q1461.3488,263.8457 1460.8019,263.7207 Q1460.2706,263.5957 1459.7863,263.5957 Q1458.6144,263.5957 1457.9113,264.127 Q1457.2081,264.6582 1456.9113,265.6114 Q1456.6144,266.5645 1456.6144,267.8301 Q1456.6144,269.8457 1457.3331,270.8145 Q1458.0519,271.7676 1459.6456,271.7676 Q1460.2394,271.7676 1460.8644,271.6114 Q1461.4894,271.4551 1462.3175,271.0801 L1462.3175,273.2989 Q1461.5831,273.6114 1460.7863,273.7676 Q1460.005,273.9239 1459.2394,273.9239 Z " fill="#000000"/><text fill="#000000" font-family="sans-serif" font-size="14" lengthAdjust="spacing" textLength="121.9535" x="1480.2706" y="272.434">McpClientExample</text><line style="stroke:#181818;stroke-width:0.5;" x1="1355.75" x2="1694.2448" y1="283.002" y2="283.002"/><ellipse cx="1365.75" cy="298.0359" fill="none" rx="3" ry="3" style="stroke:#038048;stroke-width:1;"/><text fill="#000000" font-family="sans-serif" font-size="14" lengthAdjust="spacing" textLength="116.0176" x="1374.75" y="301.9679">studentID : String</text><line style="stroke:#181818;stroke-width:0.5;" x1="1355.75" x2="1694.2448" y1="310.0699" y2="310.0699"/><ellipse cx="1365.75" cy="325.1039" fill="#84BE84" rx="3" ry="3" style="stroke:#038048;stroke-width:1;"/><text fill="#000000" font-family="sans-serif" font-size="14" lengthAdjust="spacing" text-decoration="underline" textLength="314.4948" x="1374.75" y="329.0358">main ( paramString;1 : [Ljava.lang.String; ) : void</text></g><!--class MockLLM--><g class="entity" data-entity="MockLLM" data-source-line="8" data-uid="ent0006" id="entity_MockLLM"><rect fill="#F1F1F1" height="314.9508" rx="2.5" ry="2.5" style="stroke:#181818;stroke-width:0.5;" width="1092.7544" x="1730.62" y="136.602"/><ellipse cx="2241.3803" cy="152.602" fill="#ADD1B2" rx="11" ry="11" style="stroke:#181818;stroke-width:1;"/><path d="M2240.8491,159.5239 Q2239.0991,159.5239 2237.9584,158.7895 Q2236.8334,158.0395 2236.2709,156.6957 Q2235.7241,155.3364 2235.7241,153.5395 Q2235.7241,151.5082 2236.3803,150.0551 Q2237.0366,148.602 2238.3178,147.8207 Q2239.5991,147.0395 2241.4741,147.0395 Q2242.3647,147.0395 2243.0366,147.227 Q2243.7084,147.3989 2244.3959,147.7426 L2243.5834,149.7582 Q2242.9584,149.4457 2242.4116,149.3207 Q2241.8803,149.1957 2241.3959,149.1957 Q2240.2241,149.1957 2239.5209,149.727 Q2238.8178,150.2582 2238.5209,151.2114 Q2238.2241,152.1645 2238.2241,153.4301 Q2238.2241,155.4457 2238.9428,156.4145 Q2239.6616,157.3676 2241.2553,157.3676 Q2241.8491,157.3676 2242.4741,157.2114 Q2243.0991,157.0551 2243.9272,156.6801 L2243.9272,158.8989 Q2243.1928,159.2114 2242.3959,159.3676 Q2241.6147,159.5239 2240.8491,159.5239 Z " fill="#000000"/><text fill="#000000" font-family="sans-serif" font-size="14" lengthAdjust="spacing" textLength="62.7337" x="2261.8803" y="158.034">MockLLM</text><line style="stroke:#181818;stroke-width:0.5;" x1="1731.62" x2="2822.3744" y1="168.602" y2="168.602"/><rect fill="none" height="6" style="stroke:#C82930;stroke-width:1;" width="6" x="1738.62" y="180.6359"/><text fill="#000000" font-family="sans-serif" font-size="14" lengthAdjust="spacing" text-decoration="underline" textLength="165.1853" x="1750.62" y="187.5679">DEFAULT_MODEL : String</text><rect fill="none" height="6" style="stroke:#C82930;stroke-width:1;" width="6" x="1738.62" y="199.7039"/><text fill="#000000" font-family="sans-serif" font-size="14" lengthAdjust="spacing" text-decoration="underline" textLength="129.9335" x="1750.62" y="206.6358">MAX_TOKENS : long</text><rect fill="none" height="6" style="stroke:#C82930;stroke-width:1;" width="6" x="1738.62" y="218.7718"/><text fill="#000000" font-family="sans-serif" font-size="14" lengthAdjust="spacing" text-decoration="underline" textLength="325.4007" x="1750.62" y="225.7038">client : com.anthropic.client.AnthropicClientAsync</text><rect fill="none" height="6" style="stroke:#C82930;stroke-width:1;" width="6" x="1738.62" y="237.8397"/><text fill="#000000" font-family="sans-serif" font-size="14" lengthAdjust="spacing" text-decoration="underline" textLength="378.0265" x="1750.62" y="244.7717">mcpClient : io.modelcontextprotocol.client.McpSyncClient</text><line style="stroke:#181818;stroke-width:0.5;" x1="1731.62" x2="2822.3744" y1="252.8736" y2="252.8736"/><rect fill="#F24D5C" height="6" style="stroke:#C82930;stroke-width:1;" width="6" x="1738.62" y="264.9076"/><text fill="#000000" font-family="sans-serif" font-size="14" lengthAdjust="spacing" text-decoration="underline" textLength="170.6733" x="1750.62" y="271.8396">initializeMcpClient () : void</text><rect fill="#F24D5C" height="6" style="stroke:#C82930;stroke-width:1;" width="6" x="1738.62" y="283.9755"/><text fill="#000000" font-family="sans-serif" font-size="14" lengthAdjust="spacing" text-decoration="underline" textLength="1066.7544" x="1750.62" y="290.9075">lambda$initializeMcpClient$0 ( paramMcpSchema$LoggingMessageNotification1 : io.modelcontextprotocol.spec.McpSchema$LoggingMessageNotification ) : void</text><rect fill="#F24D5C" height="6" style="stroke:#C82930;stroke-width:1;" width="6" x="1738.62" y="303.0434"/><text fill="#000000" font-family="sans-serif" font-size="14" lengthAdjust="spacing" text-decoration="underline" textLength="244.327" x="1750.62" y="309.9754">lambda$initializeMcpClient$1 () : void</text><rect fill="#F24D5C" height="6" style="stroke:#C82930;stroke-width:1;" width="6" x="1738.62" y="322.1114"/><text fill="#000000" font-family="sans-serif" font-size="14" lengthAdjust="spacing" text-decoration="underline" textLength="886.113" x="1750.62" y="329.0433">lambda$processInput$2 ( paramList1 : java.util.List , paramMcpSchema$Tool2 : io.modelcontextprotocol.spec.McpSchema$Tool ) : void</text><rect fill="#F24D5C" height="6" style="stroke:#C82930;stroke-width:1;" width="6" x="1738.62" y="341.1793"/><text fill="#000000" font-family="sans-serif" font-size="14" lengthAdjust="spacing" text-decoration="underline" textLength="657.8856" x="1750.62" y="348.1113">lambda$processWithTools$3 ( paramTextBlock1 : com.anthropic.models.messages.TextBlock ) : void</text><rect fill="#F24D5C" height="6" style="stroke:#C82930;stroke-width:1;" width="6" x="1738.62" y="360.2472"/><text fill="#000000" font-family="sans-serif" font-size="14" lengthAdjust="spacing" text-decoration="underline" textLength="831.4152" x="1750.62" y="367.1792">lambda$processWithTools$4 ( paramContentBlock1 : com.anthropic.models.messages.ContentBlock ) : java.util.stream.Stream</text><rect fill="#F24D5C" height="6" style="stroke:#C82930;stroke-width:1;" width="6" x="1738.62" y="379.3151"/><text fill="#000000" font-family="sans-serif" font-size="14" lengthAdjust="spacing" text-decoration="underline" textLength="657.8856" x="1750.62" y="386.2471">lambda$processWithTools$5 ( paramTextBlock1 : com.anthropic.models.messages.TextBlock ) : void</text><ellipse cx="1741.62" cy="401.383" fill="#84BE84" rx="3" ry="3" style="stroke:#038048;stroke-width:1;"/><text fill="#000000" font-family="sans-serif" font-size="14" lengthAdjust="spacing" text-decoration="underline" textLength="437.8344" x="1750.62" y="405.315">processInput ( paramString1 : String , paramString2 : String ) : void</text><rect fill="#F24D5C" height="6" style="stroke:#C82930;stroke-width:1;" width="6" x="1738.62" y="417.4509"/><text fill="#000000" font-family="sans-serif" font-size="14" lengthAdjust="spacing" text-decoration="underline" textLength="641.0438" x="1750.62" y="424.3829">processWithTools ( paramString1 : String , paramList2 : java.util.List , paramString3 : String ) : void</text><ellipse cx="1741.62" cy="439.5189" fill="#84BE84" rx="3" ry="3" style="stroke:#038048;stroke-width:1;"/><text fill="#000000" font-family="sans-serif" font-size="14" lengthAdjust="spacing" text-decoration="underline" textLength="116.6755" x="1750.62" y="443.4508">shutdown () : void</text></g><!--class ToolBlock--><g class="entity" data-entity="ToolBlock" data-source-line="26" data-uid="ent0007" id="entity_ToolBlock"><rect fill="#F1F1F1" height="105.2038" rx="2.5" ry="2.5" style="stroke:#181818;stroke-width:0.5;" width="2910.1694" x="69.92" y="559.222"/><ellipse cx="1488.8978" cy="575.222" fill="#ADD1B2" rx="11" ry="11" style="stroke:#181818;stroke-width:1;"/><path d="M1488.3666,582.1439 Q1486.6166,582.1439 1485.476,581.4095 Q1484.351,580.6595 1483.7885,579.3157 Q1483.2416,577.9564 1483.2416,576.1595 Q1483.2416,574.1282 1483.8978,572.6751 Q1484.5541,571.222 1485.8353,570.4407 Q1487.1166,569.6595 1488.9916,569.6595 Q1489.8822,569.6595 1490.5541,569.847 Q1491.226,570.0189 1491.9135,570.3626 L1491.101,572.3782 Q1490.476,572.0657 1489.9291,571.9407 Q1489.3978,571.8157 1488.9135,571.8157 Q1487.7416,571.8157 1487.0385,572.347 Q1486.3353,572.8782 1486.0385,573.8314 Q1485.7416,574.7845 1485.7416,576.0501 Q1485.7416,578.0657 1486.4603,579.0345 Q1487.1791,579.9876 1488.7728,579.9876 Q1489.3666,579.9876 1489.9916,579.8314 Q1490.6166,579.6751 1491.4447,579.3001 L1491.4447,581.5189 Q1490.7103,581.8314 1489.9135,581.9876 Q1489.1322,582.1439 1488.3666,582.1439 Z " fill="#000000"/><text fill="#000000" font-family="sans-serif" font-size="14" lengthAdjust="spacing" textLength="63.7137" x="1509.3978" y="580.654">ToolBlock</text><line style="stroke:#181818;stroke-width:0.5;" x1="70.92" x2="2979.0894" y1="591.222" y2="591.222"/><rect fill="none" height="6" style="stroke:#C82930;stroke-width:1;" width="6" x="77.92" y="603.2559"/><text fill="#000000" font-family="sans-serif" font-size="14" lengthAdjust="spacing" text-decoration="underline" textLength="165.1853" x="89.92" y="610.1879">DEFAULT_MODEL : String</text><rect fill="none" height="6" style="stroke:#C82930;stroke-width:1;" width="6" x="77.92" y="622.3239"/><text fill="#000000" font-family="sans-serif" font-size="14" lengthAdjust="spacing" text-decoration="underline" textLength="129.9335" x="89.92" y="629.2558">MAX_TOKENS : long</text><line style="stroke:#181818;stroke-width:0.5;" x1="70.92" x2="2979.0894" y1="637.3578" y2="637.3578"/><ellipse cx="80.92" cy="652.3918" fill="#84BE84" rx="3" ry="3" style="stroke:#038048;stroke-width:1;"/><text fill="#000000" font-family="sans-serif" font-size="14" lengthAdjust="spacing" text-decoration="underline" textLength="2884.1694" x="89.92" y="656.3238">handleToolUseBlock ( paramToolUseBlock1 : com.anthropic.models.messages.ToolUseBlock , paramString2 : String , paramMessage3 : com.anthropic.models.messages.Message , paramMessageCreateParams$Builder4 : com.anthropic.models.messages.MessageCreateParams$Builder , paramMcpSyncClient5 : io.modelcontextprotocol.client.McpSyncClient , paramAnthropicClientAsync6 : com.anthropic.client.AnthropicClientAsync ) : void</text></g><!--class AppConfig--><g class="entity" data-entity="AppConfig" data-source-line="33" data-uid="ent0008" id="entity_AppConfig"><rect fill="#F1F1F1" height="105.2038" rx="2.5" ry="2.5" style="stroke:#181818;stroke-width:0.5;" width="1444.0408" x="3035.98" y="241.472"/><ellipse cx="3719.1635" cy="257.472" fill="#ADD1B2" rx="11" ry="11" style="stroke:#181818;stroke-width:1;"/><path d="M3718.6323,264.3939 Q3716.8823,264.3939 3715.7416,263.6595 Q3714.6166,262.9095 3714.0541,261.5657 Q3713.5073,260.2064 3713.5073,258.4095 Q3713.5073,256.3782 3714.1635,254.9251 Q3714.8198,253.472 3716.101,252.6907 Q3717.3823,251.9095 3719.2573,251.9095 Q3720.1479,251.9095 3720.8198,252.097 Q3721.4916,252.2689 3722.1791,252.6126 L3721.3666,254.6282 Q3720.7416,254.3157 3720.1948,254.1907 Q3719.6635,254.0657 3719.1791,254.0657 Q3718.0073,254.0657 3717.3041,254.597 Q3716.601,255.1282 3716.3041,256.0814 Q3716.0073,257.0345 3716.0073,258.3001 Q3716.0073,260.3157 3716.726,261.2845 Q3717.4448,262.2376 3719.0385,262.2376 Q3719.6323,262.2376 3720.2573,262.0814 Q3720.8823,261.9251 3721.7104,261.5501 L3721.7104,263.7689 Q3720.976,264.0814 3720.1791,264.2376 Q3719.3979,264.3939 3718.6323,264.3939 Z " fill="#000000"/><text fill="#000000" font-family="sans-serif" font-size="14" lengthAdjust="spacing" textLength="69.1737" x="3739.6635" y="262.904">AppConfig</text><line style="stroke:#181818;stroke-width:0.5;" x1="3036.98" x2="4479.0208" y1="273.472" y2="273.472"/><line style="stroke:#181818;stroke-width:0.5;" x1="3036.98" x2="4479.0208" y1="281.472" y2="281.472"/><polygon fill="#4177AF" points="3046.98,292.5059,3042.98,298.5059,3050.98,298.5059" style="stroke:#1963A0;stroke-width:1;"/><text fill="#000000" font-family="sans-serif" font-size="14" lengthAdjust="spacing" textLength="1418.0408" x="3055.98" y="300.4379">mcpRouterFunction ( paramWebFluxSseServerTransportProvider1 : io.modelcontextprotocol.server.transport.WebFluxSseServerTransportProvider ) : org.springframework.web.reactive.function.server.RouterFunction</text><ellipse cx="3046.98" cy="315.5739" fill="#84BE84" rx="3" ry="3" style="stroke:#038048;stroke-width:1;"/><text fill="#000000" font-family="sans-serif" font-size="14" lengthAdjust="spacing" textLength="1270.4816" x="3055.98" y="319.5058">mcpServerThing ( paramWebFluxSseServerTransportProvider1 : io.modelcontextprotocol.server.transport.WebFluxSseServerTransportProvider ) : io.modelcontextprotocol.server.McpSyncServer</text><polygon fill="#4177AF" points="3046.98,330.6418,3042.98,336.6418,3050.98,336.6418" style="stroke:#1963A0;stroke-width:1;"/><text fill="#000000" font-family="sans-serif" font-size="14" lengthAdjust="spacing" textLength="1251.9738" x="3055.98" y="338.5738">webFluxSseServerTransportProvider ( paramObjectMapper1 : com.fasterxml.jackson.databind.ObjectMapper ) : io.modelcontextprotocol.server.transport.WebFluxSseServerTransportProvider</text></g><!--class JsonSerializer--><g class="entity" data-entity="JsonSerializer" data-source-line="40" data-uid="ent0010" id="entity_JsonSerializer"><rect fill="#F1F1F1" height="105.2038" rx="2.5" ry="2.5" style="stroke:#181818;stroke-width:0.5;" width="737.7575" x="4515.12" y="241.472"/><ellipse cx="4835.7679" cy="257.472" fill="#ADD1B2" rx="11" ry="11" style="stroke:#181818;stroke-width:1;"/><path d="M4835.2367,264.3939 Q4833.4867,264.3939 4832.346,263.6595 Q4831.221,262.9095 4830.6585,261.5657 Q4830.1117,260.2064 4830.1117,258.4095 Q4830.1117,256.3782 4830.7679,254.9251 Q4831.4242,253.472 4832.7054,252.6907 Q4833.9867,251.9095 4835.8617,251.9095 Q4836.7523,251.9095 4837.4242,252.097 Q4838.096,252.2689 4838.7835,252.6126 L4837.971,254.6282 Q4837.346,254.3157 4836.7992,254.1907 Q4836.2679,254.0657 4835.7835,254.0657 Q4834.6117,254.0657 4833.9085,254.597 Q4833.2054,255.1282 4832.9085,256.0814 Q4832.6117,257.0345 4832.6117,258.3001 Q4832.6117,260.3157 4833.3304,261.2845 Q4834.0492,262.2376 4835.6429,262.2376 Q4836.2367,262.2376 4836.8617,262.0814 Q4837.4867,261.9251 4838.3148,261.5501 L4838.3148,263.7689 Q4837.5804,264.0814 4836.7835,264.2376 Q4836.0023,264.3939 4835.2367,264.3939 Z " fill="#000000"/><text fill="#000000" font-family="sans-serif" font-size="14" lengthAdjust="spacing" textLength="87.9617" x="4856.2679" y="262.904">JsonSerializer</text><line style="stroke:#181818;stroke-width:0.5;" x1="4516.12" x2="5251.8775" y1="273.472" y2="273.472"/><line style="stroke:#181818;stroke-width:0.5;" x1="4516.12" x2="5251.8775" y1="281.472" y2="281.472"/><ellipse cx="4526.12" cy="296.5059" fill="#84BE84" rx="3" ry="3" style="stroke:#038048;stroke-width:1;"/><text fill="#000000" font-family="sans-serif" font-size="14" lengthAdjust="spacing" text-decoration="underline" textLength="498.2861" x="4535.12" y="300.4379">convertJsonValueToString ( paramJsonValue1 : javax.json.JsonValue ) : String</text><ellipse cx="4526.12" cy="315.5739" fill="#84BE84" rx="3" ry="3" style="stroke:#038048;stroke-width:1;"/><text fill="#000000" font-family="sans-serif" font-size="14" lengthAdjust="spacing" text-decoration="underline" textLength="711.7575" x="4535.12" y="319.5058">convertToolUseBlockToJson ( paramToolUseBlock1 : com.anthropic.models.messages.ToolUseBlock ) : String</text><ellipse cx="4526.12" cy="334.6418" fill="#84BE84" rx="3" ry="3" style="stroke:#038048;stroke-width:1;"/><text fill="#000000" font-family="sans-serif" font-size="14" lengthAdjust="spacing" text-decoration="underline" textLength="308.2229" x="4535.12" y="338.5738">serializeToJson ( paramString1 : String ) : String</text></g><!--class McpServerExample--><g class="entity" data-entity="McpServerExample" data-source-line="47" data-uid="ent0011" id="entity_McpServerExample"><rect fill="#F1F1F1" height="105.2038" rx="2.5" ry="2.5" style="stroke:#181818;stroke-width:0.5;" width="1368.0071" x="5288" y="241.472"/><ellipse cx="5904.5368" cy="257.472" fill="#ADD1B2" rx="11" ry="11" style="stroke:#181818;stroke-width:1;"/><path d="M5904.0055,264.3939 Q5902.2555,264.3939 5901.1149,263.6595 Q5899.9899,262.9095 5899.4274,261.5657 Q5898.8805,260.2064 5898.8805,258.4095 Q5898.8805,256.3782 5899.5368,254.9251 Q5900.193,253.472 5901.4743,252.6907 Q5902.7555,251.9095 5904.6305,251.9095 Q5905.5212,251.9095 5906.193,252.097 Q5906.8649,252.2689 5907.5524,252.6126 L5906.7399,254.6282 Q5906.1149,254.3157 5905.568,254.1907 Q5905.0368,254.0657 5904.5524,254.0657 Q5903.3805,254.0657 5902.6774,254.597 Q5901.9743,255.1282 5901.6774,256.0814 Q5901.3805,257.0345 5901.3805,258.3001 Q5901.3805,260.3157 5902.0993,261.2845 Q5902.818,262.2376 5904.4118,262.2376 Q5905.0055,262.2376 5905.6305,262.0814 Q5906.2555,261.9251 5907.0837,261.5501 L5907.0837,263.7689 Q5906.3493,264.0814 5905.5524,264.2376 Q5904.7712,264.3939 5904.0055,264.3939 Z " fill="#000000"/><text fill="#000000" font-family="sans-serif" font-size="14" lengthAdjust="spacing" textLength="126.4335" x="5925.0368" y="262.904">McpServerExample</text><line style="stroke:#181818;stroke-width:0.5;" x1="5289" x2="6655.0071" y1="273.472" y2="273.472"/><line style="stroke:#181818;stroke-width:0.5;" x1="5289" x2="6655.0071" y1="281.472" y2="281.472"/><rect fill="#F24D5C" height="6" style="stroke:#C82930;stroke-width:1;" width="6" x="5296" y="293.5059"/><text fill="#000000" font-family="sans-serif" font-size="14" lengthAdjust="spacing" text-decoration="underline" textLength="1342.0071" x="5308" y="300.4379">lambda$mcpServer$0 ( paramMcpSyncServerExchange1 : io.modelcontextprotocol.server.McpSyncServerExchange , paramMap2 : java.util.Map ) : io.modelcontextprotocol.spec.McpSchema$CallToolResult</text><rect fill="#F24D5C" height="6" style="stroke:#C82930;stroke-width:1;" width="6" x="5296" y="312.5739"/><text fill="#000000" font-family="sans-serif" font-size="14" lengthAdjust="spacing" text-decoration="underline" textLength="676.0014" x="5308" y="319.5058">lambda$mcpServer$1 ( paramMcpSyncServer1 : io.modelcontextprotocol.server.McpSyncServer ) : void</text><ellipse cx="5299" cy="334.6418" fill="#84BE84" rx="3" ry="3" style="stroke:#038048;stroke-width:1;"/><text fill="#000000" font-family="sans-serif" font-size="14" lengthAdjust="spacing" textLength="1233.1718" x="5308" y="338.5738">mcpServer ( paramWebFluxSseServerTransportProvider1 : io.modelcontextprotocol.server.transport.WebFluxSseServerTransportProvider ) : io.modelcontextprotocol.server.McpSyncServer</text></g><!--class McpWebServer--><g class="entity" data-entity="McpWebServer" data-source-line="54" data-uid="ent0012" id="entity_McpWebServer"><rect fill="#F1F1F1" height="67.0679" rx="2.5" ry="2.5" style="stroke:#181818;stroke-width:0.5;" width="340.4948" x="3587.75" y="578.282"/><ellipse cx="3703.8936" cy="594.282" fill="#ADD1B2" rx="11" ry="11" style="stroke:#181818;stroke-width:1;"/><path d="M3703.3624,601.2039 Q3701.6124,601.2039 3700.4717,600.4695 Q3699.3467,599.7195 3698.7842,598.3757 Q3698.2374,597.0164 3698.2374,595.2195 Q3698.2374,593.1882 3698.8936,591.7351 Q3699.5499,590.282 3700.8311,589.5007 Q3702.1124,588.7195 3703.9874,588.7195 Q3704.878,588.7195 3705.5499,588.907 Q3706.2217,589.0789 3706.9092,589.4226 L3706.0967,591.4382 Q3705.4717,591.1257 3704.9249,591.0007 Q3704.3936,590.8757 3703.9092,590.8757 Q3702.7374,590.8757 3702.0342,591.407 Q3701.3311,591.9382 3701.0342,592.8914 Q3700.7374,593.8445 3700.7374,595.1101 Q3700.7374,597.1257 3701.4561,598.0945 Q3702.1749,599.0476 3703.7686,599.0476 Q3704.3624,599.0476 3704.9874,598.8914 Q3705.6124,598.7351 3706.4405,598.3601 L3706.4405,600.5789 Q3705.7061,600.8914 3704.9092,601.0476 Q3704.128,601.2039 3703.3624,601.2039 Z " fill="#000000"/><text fill="#000000" font-family="sans-serif" font-size="14" lengthAdjust="spacing" textLength="99.7076" x="3724.3936" y="599.714">McpWebServer</text><line style="stroke:#181818;stroke-width:0.5;" x1="3588.75" x2="3927.2448" y1="610.282" y2="610.282"/><line style="stroke:#181818;stroke-width:0.5;" x1="3588.75" x2="3927.2448" y1="618.282" y2="618.282"/><ellipse cx="3598.75" cy="633.3159" fill="#84BE84" rx="3" ry="3" style="stroke:#038048;stroke-width:1;"/><text fill="#000000" font-family="sans-serif" font-size="14" lengthAdjust="spacing" text-decoration="underline" textLength="314.4948" x="3607.75" y="637.2479">main ( paramString;1 : [Ljava.lang.String; ) : void</text></g><!--class SqlViewToolServer--><g class="entity" data-entity="SqlViewToolServer" data-source-line="59" data-uid="ent0013" id="entity_SqlViewToolServer"><rect fill="#F1F1F1" height="200.5433" rx="2.5" ry="2.5" style="stroke:#181818;stroke-width:0.5;" width="1459.8044" x="3963.1" y="511.552"/><ellipse cx="4628.0975" cy="527.552" fill="#ADD1B2" rx="11" ry="11" style="stroke:#181818;stroke-width:1;"/><path d="M4627.5662,534.4739 Q4625.8162,534.4739 4624.6756,533.7395 Q4623.5506,532.9895 4622.9881,531.6457 Q4622.4412,530.2864 4622.4412,528.4895 Q4622.4412,526.4582 4623.0975,525.0051 Q4623.7537,523.552 4625.035,522.7707 Q4626.3162,521.9895 4628.1912,521.9895 Q4629.0818,521.9895 4629.7537,522.177 Q4630.4256,522.3489 4631.1131,522.6926 L4630.3006,524.7082 Q4629.6756,524.3957 4629.1287,524.2707 Q4628.5975,524.1457 4628.1131,524.1457 Q4626.9412,524.1457 4626.2381,524.677 Q4625.535,525.2082 4625.2381,526.1614 Q4624.9412,527.1145 4624.9412,528.3801 Q4624.9412,530.3957 4625.66,531.3645 Q4626.3787,532.3176 4627.9725,532.3176 Q4628.5662,532.3176 4629.1912,532.1614 Q4629.8162,532.0051 4630.6443,531.6301 L4630.6443,533.8489 Q4629.91,534.1614 4629.1131,534.3176 Q4628.3318,534.4739 4627.5662,534.4739 Z " fill="#000000"/><text fill="#000000" font-family="sans-serif" font-size="14" lengthAdjust="spacing" textLength="121.3095" x="4648.5975" y="532.984">SqlViewToolServer</text><line style="stroke:#181818;stroke-width:0.5;" x1="3964.1" x2="5421.9044" y1="543.552" y2="543.552"/><rect fill="none" height="6" style="stroke:#C82930;stroke-width:1;" width="6" x="3971.1" y="555.5859"/><text fill="#000000" font-family="sans-serif" font-size="14" lengthAdjust="spacing" text-decoration="underline" textLength="102.2416" x="3983.1" y="562.5179">DB_URL : String</text><rect fill="none" height="6" style="stroke:#C82930;stroke-width:1;" width="6" x="3971.1" y="574.6539"/><text fill="#000000" font-family="sans-serif" font-size="14" lengthAdjust="spacing" text-decoration="underline" textLength="374.2326" x="3983.1" y="581.5858">MAPPER : com.fasterxml.jackson.databind.ObjectMapper</text><rect fill="none" height="6" style="stroke:#C82930;stroke-width:1;" width="6" x="3971.1" y="593.7218"/><text fill="#000000" font-family="sans-serif" font-size="14" lengthAdjust="spacing" text-decoration="underline" textLength="179.3253" x="3983.1" y="600.6538">MCP_DIR : java.nio.file.Path</text><line style="stroke:#181818;stroke-width:0.5;" x1="3964.1" x2="5421.9044" y1="608.7557" y2="608.7557"/><rect fill="#F24D5C" height="6" style="stroke:#C82930;stroke-width:1;" width="6" x="3971.1" y="620.7897"/><text fill="#000000" font-family="sans-serif" font-size="14" lengthAdjust="spacing" text-decoration="underline" textLength="673.2154" x="3983.1" y="627.7217">createQueryToolForView () : io.modelcontextprotocol.server.McpServerFeatures$SyncToolSpecification</text><polygon fill="#4177AF" points="3974.1,638.8576,3970.1,644.8576,3978.1,644.8576" style="stroke:#1963A0;stroke-width:1;"/><text fill="#000000" font-family="sans-serif" font-size="14" lengthAdjust="spacing" text-decoration="underline" textLength="560.7398" x="3983.1" y="646.7896">getTool () : io.modelcontextprotocol.server.McpServerFeatures$SyncToolSpecification</text><rect fill="#F24D5C" height="6" style="stroke:#C82930;stroke-width:1;" width="6" x="3971.1" y="658.9255"/><text fill="#000000" font-family="sans-serif" font-size="14" lengthAdjust="spacing" text-decoration="underline" textLength="1433.8044" x="3983.1" y="665.8575">lambda$createQueryToolForView$0 ( paramMcpSyncServerExchange1 : io.modelcontextprotocol.server.McpSyncServerExchange , paramMap2 : java.util.Map ) : io.modelcontextprotocol.spec.McpSchema$CallToolResult</text><ellipse cx="3974.1" cy="680.9934" fill="#84BE84" rx="3" ry="3" style="stroke:#038048;stroke-width:1;"/><text fill="#000000" font-family="sans-serif" font-size="14" lengthAdjust="spacing" text-decoration="underline" textLength="308.7269" x="3983.1" y="684.9254">removeQuotes ( paramString1 : String ) : String</text><rect fill="#F24D5C" height="6" style="stroke:#C82930;stroke-width:1;" width="6" x="3971.1" y="697.0614"/><text fill="#000000" font-family="sans-serif" font-size="14" lengthAdjust="spacing" text-decoration="underline" textLength="404.6265" x="3983.1" y="703.9933">resultSetToCsv ( paramResultSet1 : java.sql.ResultSet ) : String</text></g><!--SRC=[rLTHSzeu47u-VeKVUEWDhQOaJH-kJuJ0JEwWeK3Ipjn3HiZ2A94bLvA1DjFyzblPbYCI1vlEPJhb1LYlzjjlT_L99Xnh7H0P8xh5SS8f8fnHOT2O9Ftiro2t1tUjF-wMZFBmHz3H9WtXqVbPy5SmCug921x6rAmaF0tkjC664V2BCHF1go312iUvtuSkBFbtT8FN674i8bIOWp_1lfOiRFrejLhasQmakHsDnduo9TgRiy6mTpcQNuylpWOZFxCddkFUb-lvnJ-3ZpDmuxBQAOS41vi75cQbPCA8owJd37cLUlgR85LHObT72CGaYcL8EP72qAr9b3IIIEwLV0PHSlVAWhvXWXc6EVjEo_u4hyhILIxXE5w4k5sniltMzSOYanMDSNiaemYADgPQuuX-b8Oj6O58KdJt4D099QX9aE2dS-qsv0av4S0z5qbgsaUEu8XfOmbaSvSQnf6r1AyVqvzBoO-Q4xNkmI5fVMPcPHVfzh5BRGxnJpdCTVV9g6KfQ1JdTTIeTFr9p7SEiszfYQQmldU6_515RHJ5iTt4y7LOCYSlLu2EFmIx-jCjTS4rF_ztz63VNzl7FEh2spaxUdRoSj_ZXk0TlKfDA3V2smjxvT9ccDVh1GIp8hyL5Y6d5lLIqnpODTcpDUYp7-6vFhdDcoywhWrQE3vQruV9DNHYBRfzcZ8UKlMkQQognRweb6f-Sg3wko1LfypxGuwakdDLKxMc2lMI17RvaaNPeBZEtiFXDPMfeMgO2fBfTz7EptGnvEbsfkai2p1NMEX4AZDHSisW2djFYnpJk3MeDbh6Gge8zDUsVWaPq8rKjsX35mXw0BcjALeMIJg0tTGzNXtWLI2jx2JzGb8ruOgXo2FudTdKHYz8NInkA35Zd2Hv_hRvIwoXCDkOenjCRZLKBCG6BvW8aU_U9C43-EwVmByX3LYO7_jgPmmzWO4imDbOvolCKv2QGWmAjkK3TzXlqOtbLzepJlkkh0M2hq1pQPV_3qfMXwqT_rt49qUB5sTlJSTkpFqx_FD7TBahTY-6vVmDjWG4FgBT0-VMhIkL4IUx9o8Ozi_QxgshZpctTPrIdNBJa5AtajAXLAhEvmSr-Ms4f6vg0B9WTFVIBtO5wEmhls9qOzlg8J-ziPnUNqxhhYgJoM1wcD9LnkbFhi_EfsvG1HHuoI3X2JQhwfaZsMtWKqhLDyjZA9MbbD_L6hGd-pM44AcYkcsxbLK3PhzyVQh4lOze9bSl3kGsLJNFtryqEeh6SWt4fA6wYVXM5abb03FRaxvUkp1JPotVGlLNZahhOqc7pty0]--></g></svg>